<?xml version="1.0" encoding="utf-8"?>
<svg viewBox="0 0 500 500" xmlns="http://www.w3.org/2000/svg" xmlns:bx="https://boxy-svg.com">
  <g>
    <g>
      <circle style="fill: rgb(128, 132, 135);" cx="227.912" cy="76.305" r="46.283" transform="matrix(1.086772, 0, 0, 1.097618, -11.744228, 1.085364)"/>
      <path style="fill: rgb(128, 132, 135);" transform="matrix(0.017651, 0.959651, -0.868161, 0.015967, 513.087463, 20.508738)" d="M 110.481 276.977 A 86.047 86.047 0 1 1 110.481 363.023 A 65.451 65.451 0 0 0 110.481 276.977 Z" bx:shape="crescent 185 320 86.047 300 0.161 1@2dcecf18" bx:origin="0.494 0.535"/>
    </g>
    <path d="M 302 515.541 L 358.858 582.193 L 337.14 690.037 L 266.86 690.037 L 245.142 582.193 Z" style="fill: rgb(128, 132, 135);" transform="matrix(0.999994, 0.003449, -0.003449, 0.999994, -62.079164, -336.926106)" bx:shape="n-gon 302 612 59.784 96.459 5 0 1@932f0fe1"/>
    <circle style="fill: rgb(128, 132, 135);" cx="227.856" cy="348.603" r="23.27" transform="matrix(1.549317, 0, 0, 1.087392, -115.868759, -29.593349)"/>
  </g>
  <path style="fill: rgb(216, 216, 216); stroke: rgb(0, 0, 0);" d="M 237.152 335.82"/>
  <path style="fill: rgb(216, 216, 216); stroke: rgb(0, 0, 0);" d="M 327.793 259.705"/>
</svg>